# xmcd
#
# Track frame offsets: 
#        150
#        13575
#        27263
#        39925
#        52001
#        65484
#        87835
#        98940
#        111720
#        125429
#        138857
#        150967
#        162830
#        176466
#        191001
#
# Disc length: 2746 seconds
#
# Revision: 0
# Processed by: cddbd v1.5.2PL0 Copyright (c) Steve Scherf et al.
# Submitted via: ExactAudioCopy v1.1
#
DISCID=c00ab80f
DTITLE=Various Artist - Various ‎– Simply Blues
DYEAR=2012
DGENRE=Blues
TTITLE0=Robert Johnson - I Believe I'll Dust My Broom
TTITLE1=Robert Johnson - Sweet Home Chicago
TTITLE2=Bukka White - Fixin' To Die Blues
TTITLE3=Bukka White - Parchman Farm Blues
TTITLE4=Son House - Walking Blues
TTITLE5=Son House - Low Down Dirty Dog Blues
TTITLE6=Robert Johnson - Love In Vain
TTITLE7=Robert Johnson - Come On In My Kitchen
TTITLE8=Blind Lemon Jefferson - Match Box Blues
TTITLE9=Blind Lemon Jefferson - Rabbit Foot Blues
TTITLE10=Robert Johnson - Cross Road Blues
TTITLE11=Robert Johnson - Hellhound On My Trail
TTITLE12=Robert Johnson - Terraplane Blues
TTITLE13=Blind Willie Johnson - Jesus Make Up My Dying
TTITLE14=Blind Willie Johnson - Dark Was The Night (Cold Was The Groun
TTITLE14=d)
EXTD=
EXTT0=
EXTT1=
EXTT2=
EXTT3=
EXTT4=
EXTT5=
EXTT6=
EXTT7=
EXTT8=
EXTT9=
EXTT10=
EXTT11=
EXTT12=
EXTT13=
EXTT14=
PLAYORDER=
